<svg width="111" height="34" xmlns="http://www.w3.org/2000/svg" xmlns:xlink="http://www.w3.org/1999/xlink"><defs><path id="a" d="M.09.022h4.802V7H.09z"/><path id="c" d="M0 .123h20.806v19.77H0z"/></defs><g fill="none" fill-rule="evenodd"><path d="M38.622 28.549v2.093c.37.034.725.057 1.068.057 1.121 0 1.688-.385 1.688-1.143 0-.668-.593-1.007-1.609-1.007h-1.147zm0-3.214v2.003h1.095c.804 0 1.371-.362 1.371-1.052 0-.634-.554-.985-1.45-.985-.383 0-.726.012-1.016.034zM37 24.057A67.371 67.371 0 0 1 39.664 24c2.097 0 3.033.78 3.033 1.958 0 .848-.435 1.448-1.319 1.799v.022c.963.215 1.622.838 1.622 1.845C43 31.197 41.629 32 39.572 32c-1.121 0-1.979-.023-2.572-.057v-7.886zM48.765 27l-1.935 2.378L49 32h-1.678l-1.991-2.522L47.143 27h1.622zM44 32h1.286v-5H44v5z" fill="#C3151C"/><g transform="translate(50 27)"><mask id="b" fill="#fff"><use xlink:href="#a"/></mask><path d="M4.892 4.72c0 .774-.23 1.347-.702 1.718C3.73 6.809 3.142 7 2.44 7 1.644 7 .942 6.798.331 6.406l.588-.965a2.49 2.49 0 0 0 1.427.424c.818 0 1.22-.339 1.22-1.018v-.636c-.414.467-.966.7-1.657.7C.839 4.91.09 4.243.09 2.938V.022h1.325v2.662c0 .731.334 1.092.99 1.092.449 0 .84-.19 1.163-.583V.022h1.324V4.72z" fill="#C3151C" mask="url(#b)"/></g><path d="M61 32.009c-.437.648-1.23.991-2.116.991-.863 0-1.56-.28-2.092-.826C56.26 31.627 56 30.903 56 30c0-.852.26-1.564.78-2.136.52-.571 1.182-.864 1.974-.864.946 0 1.655.254 2.14.775l-.639 1.157a1.761 1.761 0 0 0-1.323-.559c-.39 0-.745.153-1.04.457-.296.293-.438.687-.438 1.17 0 .496.154.89.45 1.195.307.292.673.445 1.087.445.52 0 .98-.229 1.37-.7L61 32.01zM65.653 32v-1.911h-2.306V32H62v-5h1.347v1.889h2.306V27H67v5zm5.339-1.337c1.175 0 1.789-.27 1.789-1.169 0-.875-.586-1.289-1.746-1.289-1.126 0-1.745.408-1.745 1.295 0 .876.184 1.163 1.343 1.163h.359zM68.82 27.71c.551-.477 1.286-.71 2.18-.71.894 0 1.617.233 2.167.71.551.466.833 1.06.833 1.79 0 .731-.282 1.324-.833 1.801-.55.466-1.273.699-2.167.699-.894 0-1.629-.233-2.18-.699-.55-.477-.82-1.07-.82-1.8 0-.732.27-1.325.82-1.791zM76.046 30c.536 0 .954.48.954.961 0 .558-.418 1.039-.954 1.039A1.02 1.02 0 0 1 75 30.961c0-.48.418-.961 1.046-.961M48.329 9.595c-1.045 1.195-2.322 3.21-2.328 5.386-.017 1.356.263 3.412 1.872 4.31 2.005 1.113 3.833.816 5.64-.201 2.055-1.19 3.663-3.005 3.663-3.005s-.287-.55-1.266-.174c-.962.373-2.167 1.091-3.135 1.253-1.735.274-3.3-.795-3.074-2.975.234-2.185 1.189-4.431 2.382-5.296.706-.526 1.551-.861 2.393-.519.582.254.848.51 1.11 1.122.326.777.286 1.554-.277 2.196-.506.581-1.303.97-2.088.854-1.646-.243-2.145 1.488-2.145 1.488s.378.495 2.234.241c1.201-.184 2.54-.925 3.35-1.617 3.77-3.3 2.385-5.848.035-6.522-2.354-.682-6.512 1.313-8.366 3.46M62.19 13.37c1.268-1.68 2.682-4.523 3.142-5.359.467-.824 2.292-2.46 2.666-.545.362 1.889.204 6.369.126 7.165 1.698-1.74 3.856-7.075 5.56-8.219 1.698-1.126 2.123-.212 3.055 6.117.919 6.362-.747 6.707-2.516 7.281-1.747.571-1.902-.755-1.904-1.674.009-.664-.132-7.816-.641-6.969-.074.162-2.239 3.816-2.975 5.025-.162.288-.52.795-.888 1.318-1.376 1.992-2.588 2.962-2.774 1.315-.133-1.315.011-6.359.028-6.821.05-.912-.162-.465-.439-.045-.118.176-4.093 7.72-6.33 8.008-1.205.168-1.402-.328-1.26-1.096.128-.636.385-1.481 1.677-2.322 1.886-1.21 2.822-2.31 3.474-3.18M35.736 5.015c-.815-.165-3.377 1.06-4.185 2.866-.65 1.416-3.5 9.818-4.88 13.935-.367 1.095-.612 1.84-.655 1.987-.204.702 1.566 1.262 2.154 1.19 1.444-.174 2.607-.976 3.523-4.044 1.35-4.442 2.065-8.11 2.516-9.157.466-1.047 4.248-4.085 5.818-2.855 2.073 1.607.134 8.065-3.424 8.892-2.29.55-2.21-.626-3.162-.322-.38 1.213 1.318 2.407 3.74 2.131 1.754-.203 5.483-1.718 7.045-5.481 2.12-5.11-.476-8.197-3.418-8.362-2.931-.2-6.197 3.858-6.197 3.858s1.563-4.556 1.125-4.638M17.328 8.596c-1.046 1.193-2.319 3.208-2.327 5.383-.015 1.358.26 3.414 1.868 4.31 2.007 1.116 3.838.818 5.643-.202 2.055-1.187 3.667-3 3.667-3s-.291-.551-1.268-.178c-.961.373-2.168 1.091-3.136 1.253-1.734.274-3.302-.793-3.08-2.975.24-2.184 1.191-4.43 2.388-5.294.707-.526 1.552-.862 2.395-.518.58.258.845.51 1.105 1.123.33.774.291 1.55-.274 2.193-.509.58-1.305.97-2.088.854-1.649-.241-2.147 1.487-2.147 1.487s.377.496 2.236.246c1.201-.188 2.537-.93 3.35-1.621 3.77-3.3 2.386-5.847.035-6.521-2.354-.681-6.514 1.313-8.367 3.46m72.267 5.808c-.77 1.966-2.114 3.618-4.223 3.534-1.092-.062-2.145-.631-2.217-2.386-.041-1.226.46-2.907.97-4.157.654-1.658 2.104-4.18 4.756-3.038 1.722.727 1.643 3.783.714 6.047m3.777-5.635c-1.777-3.88-6.183-2.98-9.202-1.518 0 0-4.072 1.518-5.024 5.89-.568 2.582.503 5.586 3.57 6.52.962.279 2.672.532 3.956.13 3.48-1.088 5.034-2.067 6.366-4.834 1.253-2.587 1.192-4.303.334-6.188M109.31 18.88c-3.312-2.585-4.854-5.802-7.139-7.208 2.615-2.427 3.898-3.216 5.914-3.122 1.772.091 2.572-1.553 2.24-2.482-.494-1.383-1.935-1.522-4.789.172-2.325 1.38-4.917 4.876-5.553 5.388.616-3.324 1.582-6.198 1.582-6.198-.702-.165-1.058-.258-1.642-.178-.699.074-1.602.227-2.045 1.174-.424.926-2.858 9.789-3.444 11.763-.567 1.968-.564 2.388-.076 2.592.461.204 2.085.67 3.462-.636 1.397-1.317 1.874-6.567 2.01-6.548.025 0 .056-.073.09-.17.28.163.94.73 1.577 2.043.219.46.382.747.747 1.41.871 1.583 1.413 2.775 4.093 4.393 2.123 1.268 4.097.658 4.563-.17.37-.632-.312-1.235-1.59-2.224" fill="#C3151C"/><mask id="d" fill="#fff"><use xlink:href="#c"/></mask><path d="M20.397.68c-.283-.405.038-.747-2.763-.436-2.795.315-13.432 1.765-14.377 1.9C2.123 2.3.973 2.913.378 3.781-.214 4.64.066 5.026.066 5.026s.282.331 3.484.008c3.165-.307 5.326-.356 5.326-.356l.423-.019c-1.63 4.596-4.515 13.286-4.672 13.83a.492.492 0 0 0-.018.117l-.027.09c-.2.701 1.533 1.261 2.108 1.19a1.87 1.87 0 0 0 .128-.017 2.16 2.16 0 0 0 .945-.287c.933-.458 1.72-1.487 2.377-3.73.044-.15.089-.299.13-.445h-.01c1.07-3.618 2.224-8.694 2.838-10.955 1.368-.073 3.16-.14 4.26-.08 1.991.105 2.671-.386 3.19-1.23.515-.828.15-2.06-.151-2.462" fill="#C3151C" mask="url(#d)"/></g></svg>