<?xml version="1.0" standalone="no"?>
<!DOCTYPE svg PUBLIC "-//W3C//DTD SVG 20010904//EN"
 "http://www.w3.org/TR/2001/REC-SVG-20010904/DTD/svg10.dtd">
<svg version="1.0" xmlns="http://www.w3.org/2000/svg"
 width="591.000000pt" height="591.000000pt" viewBox="0 0 591.000000 591.000000"
 preserveAspectRatio="xMidYMid meet">
<metadata>
Created by potrace 1.14, written by Peter Selinger 2001-2017
</metadata>
<g transform="translate(0.000000,591.000000) scale(0.100000,-0.100000)"
fill="#000000" stroke="none">
<path d="M2912 5715 c-20 -19 -73 -67 -117 -107 -267 -244 -433 -413 -753
-763 -15 -16 -52 -59 -82 -95 -30 -36 -62 -72 -71 -80 -9 -8 -35 -40 -59 -70
-24 -30 -51 -63 -60 -72 -19 -22 -29 -34 -65 -83 -17 -22 -36 -44 -42 -48 -7
-4 -13 -13 -13 -18 0 -6 -6 -16 -12 -23 -7 -7 -24 -27 -38 -45 -14 -18 -42
-54 -62 -81 -21 -26 -38 -52 -38 -58 0 -6 -4 -12 -8 -14 -9 -4 -111 -147 -162
-228 -19 -30 -38 -59 -43 -65 -22 -27 -155 -261 -206 -362 -54 -107 -121 -263
-114 -263 3 0 1 -6 -4 -12 -22 -28 -79 -221 -110 -367 -21 -102 -26 -401 -8
-501 7 -41 16 -91 20 -110 11 -63 56 -203 92 -285 32 -74 129 -254 143 -265 3
-3 17 -21 30 -40 72 -106 234 -274 360 -375 41 -33 77 -62 80 -65 3 -3 12 -9
21 -15 9 -5 54 -35 100 -66 46 -30 100 -65 119 -77 20 -12 29 -22 20 -23 -8
-1 -24 -3 -35 -4 -11 -2 -42 -6 -70 -9 -27 -4 -62 -9 -76 -12 -14 -3 -52 -7
-85 -9 -32 -3 -65 -7 -74 -9 -13 -4 -108 -14 -195 -21 -16 -1 -70 -6 -119 -10
-49 -4 -112 -9 -140 -11 -28 -1 -94 -5 -146 -8 -52 -3 -140 -8 -195 -11 -122
-6 -145 -10 -201 -36 -128 -61 -202 -219 -171 -369 22 -112 136 -224 247 -245
55 -10 255 -6 465 10 55 5 123 9 150 11 28 1 50 3 50 4 0 1 26 3 57 5 31 1 83
6 115 9 32 4 78 9 103 12 25 2 63 7 85 9 22 3 63 7 90 10 28 3 61 8 75 10 14
2 48 7 75 11 28 3 59 8 70 11 11 2 38 6 60 8 22 2 54 6 70 9 17 2 48 7 70 11
22 3 47 8 55 10 8 2 35 7 60 10 25 4 63 10 85 15 22 5 54 11 70 14 17 3 75 15
130 26 55 12 111 24 125 26 14 3 33 7 42 10 9 3 25 6 35 8 10 2 63 16 118 31
131 35 134 35 234 8 47 -13 95 -25 106 -28 11 -2 30 -6 41 -9 12 -2 38 -9 57
-14 20 -6 38 -7 41 -4 3 3 6 0 6 -7 0 -7 5 -9 10 -6 6 4 25 2 43 -4 17 -5 52
-13 77 -16 24 -4 47 -8 51 -10 3 -2 21 -7 40 -10 19 -3 57 -10 84 -15 28 -5
66 -12 85 -15 19 -3 48 -8 63 -11 16 -3 41 -8 55 -10 57 -8 108 -15 137 -19
17 -2 30 -4 30 -5 0 -1 11 -3 25 -4 14 -2 48 -6 75 -11 72 -11 93 -14 160 -20
33 -3 67 -8 75 -10 8 -2 47 -7 85 -10 39 -3 86 -8 105 -10 39 -5 162 -15 230
-20 25 -1 95 -6 155 -10 380 -26 471 -21 540 27 99 69 154 163 156 269 0 35 0
66 -1 69 -1 3 -4 16 -6 29 -15 84 -112 193 -200 224 -29 10 -92 19 -154 22
-58 3 -145 8 -195 11 -49 3 -117 7 -150 8 -33 2 -89 6 -125 10 -36 3 -91 8
-122 11 -142 12 -175 15 -198 20 -14 2 -56 7 -95 10 -38 3 -77 8 -85 10 -8 2
-35 7 -60 9 -129 16 -133 18 -97 38 68 37 96 54 175 111 48 33 89 65 90 69 2
4 10 8 17 8 7 0 15 3 17 8 2 4 30 30 63 57 120 101 319 319 348 382 6 13 14
23 19 23 4 0 8 4 8 9 0 5 17 38 38 72 21 35 45 80 54 99 43 94 66 150 62 150
-2 0 2 13 10 29 9 16 18 43 21 61 3 19 8 36 10 40 2 4 7 22 10 41 3 19 10 50
15 69 5 20 12 56 16 80 8 59 8 375 0 420 -37 215 -95 401 -179 580 -17 36 -32
70 -33 77 -3 17 -141 269 -176 321 -15 24 -28 45 -28 48 0 5 -136 213 -184
279 -20 28 -41 58 -48 68 -7 10 -42 57 -78 104 -36 47 -69 92 -75 102 -5 9
-13 18 -16 21 -3 3 -45 55 -94 115 -48 61 -91 112 -94 115 -4 3 -33 37 -65 75
-105 126 -304 343 -418 457 -43 43 -78 79 -78 82 0 2 -32 35 -70 72 -39 38
-108 105 -153 149 -45 44 -120 114 -167 155 -47 41 -100 90 -118 107 -19 18
-38 33 -44 33 -5 0 -26 -16 -46 -35z m189 -1007 c75 -79 158 -167 185 -197 27
-30 63 -68 79 -85 17 -17 55 -61 85 -96 30 -36 60 -70 65 -76 6 -6 28 -33 50
-59 22 -27 48 -57 58 -67 9 -10 17 -22 17 -28 0 -5 6 -13 13 -17 32 -19 377
-488 377 -513 0 -5 4 -10 8 -12 9 -3 137 -212 162 -263 8 -16 24 -46 35 -65
20 -33 108 -233 120 -270 1 -3 9 -29 18 -59 18 -59 16 -71 -8 -51 -8 7 -15 10
-15 6 0 -4 -19 3 -42 15 -24 12 -44 21 -45 21 -10 -5 -273 112 -378 167 -145
77 -377 218 -395 241 -3 3 -21 17 -40 30 -19 13 -40 29 -47 35 -6 5 -26 21
-44 35 -18 14 -51 42 -73 63 -21 20 -41 37 -44 37 -9 0 -112 108 -112 118 0 5
-6 12 -14 15 -8 3 -46 48 -85 99 -39 51 -76 98 -81 105 -6 7 -15 24 -22 38 -6
14 -15 25 -20 25 -4 0 -8 7 -8 15 0 31 -22 13 -67 -57 -47 -75 -140 -204 -177
-247 -47 -54 -296 -302 -296 -294 0 4 -8 -2 -18 -13 -19 -23 -151 -124 -222
-170 -25 -16 -47 -32 -50 -35 -3 -4 -23 -16 -45 -28 -22 -12 -62 -35 -90 -52
-27 -16 -88 -49 -135 -73 -47 -23 -96 -49 -110 -56 -14 -8 -27 -15 -30 -15 -5
0 -79 -35 -123 -57 -15 -8 -17 -5 -12 21 3 16 10 43 16 58 6 15 12 35 14 43 6
29 88 215 130 295 68 129 80 150 86 155 3 3 9 12 13 20 16 33 116 191 127 200
3 3 12 16 19 29 12 23 158 230 170 241 3 3 37 46 75 95 69 90 183 229 241 295
17 19 66 76 109 125 44 50 93 104 109 121 17 18 96 100 175 183 79 83 146 151
150 151 4 0 68 -64 142 -142z m-18 -1290 c296 -293 734 -553 1235 -733 50 -19
92 -31 92 -27 0 4 6 -1 12 -12 6 -10 10 -39 9 -65 -1 -25 -2 -53 -3 -61 0 -13
-12 -92 -24 -159 -3 -13 -9 -32 -15 -43 -5 -10 -7 -18 -5 -18 3 0 -10 -34 -29
-76 -80 -176 -218 -338 -405 -474 -30 -22 -60 -44 -67 -50 -18 -15 -133 -84
-203 -121 -36 -20 -74 -41 -85 -47 -18 -10 -132 -63 -145 -67 -3 -1 -23 -10
-45 -20 -22 -10 -46 -18 -52 -18 -7 0 -13 -4 -13 -9 0 -4 -8 -8 -18 -8 -10 0
-22 -4 -27 -9 -6 -5 -68 -28 -140 -51 -71 -24 -139 -46 -150 -51 -11 -4 -26
-9 -34 -11 -8 -2 -78 18 -155 44 -78 27 -145 50 -151 51 -24 6 -171 70 -182
79 -7 6 -13 8 -13 4 0 -3 -21 5 -47 18 -27 13 -66 32 -88 42 -65 29 -268 149
-310 182 -5 4 -26 19 -45 32 -56 39 -69 50 -163 140 -49 47 -113 117 -143 157
-60 79 -139 230 -149 283 0 3 -6 28 -13 55 -15 62 -32 214 -25 230 2 7 25 21
51 30 51 19 69 27 242 108 124 58 306 159 383 213 26 19 52 34 57 34 6 0 10 4
10 9 0 5 9 13 20 16 11 3 26 12 32 19 7 6 31 25 53 41 142 105 303 253 415
385 30 35 65 76 78 90 13 14 31 38 40 53 l17 29 40 -49 c22 -26 93 -101 158
-165z"/>
<path d="M2048 2660 c-82 -25 -155 -71 -231 -144 -52 -50 -64 -66 -48 -66 11
0 23 5 26 10 6 10 78 50 89 50 3 0 -1 -15 -9 -34 -9 -21 -13 -59 -11 -102 4
-78 25 -125 83 -186 36 -37 126 -83 143 -73 5 3 11 1 14 -3 10 -16 98 -4 158
21 120 50 195 218 153 340 -12 36 -12 37 9 31 11 -4 23 -11 24 -15 2 -5 8 -9
14 -9 5 0 16 -7 24 -15 9 -8 20 -15 25 -15 16 0 -44 68 -98 111 -26 22 -53 43
-59 48 -6 5 -31 18 -55 29 -89 40 -170 47 -251 22z"/>
<path d="M3720 2668 c-19 -5 -39 -10 -45 -11 -19 -5 -80 -31 -85 -37 -3 -3
-23 -17 -45 -31 -45 -30 -148 -129 -141 -136 2 -3 35 12 72 33 56 31 66 34 60
18 -26 -66 -30 -105 -18 -164 13 -61 46 -130 63 -130 5 0 9 -6 9 -12 0 -21 90
-72 150 -85 129 -29 281 57 324 182 18 53 15 177 -4 200 -11 13 -10 14 6 8 10
-3 21 -9 24 -12 12 -14 70 -51 70 -45 0 26 -123 139 -198 182 -70 39 -175 56
-242 40z"/>
<path d="M2736 2058 c-32 -27 -38 -82 -13 -118 67 -95 263 -129 382 -67 78 41
97 61 102 111 5 39 2 48 -22 70 -38 35 -68 33 -132 -10 -71 -47 -118 -48 -181
-4 -62 43 -101 49 -136 18z"/>
</g>
</svg>
